<svg id="圖層_1" data-name="圖層 1" xmlns="http://www.w3.org/2000/svg" viewBox="0 0 100 100"><defs><style>.cls-1{fill:#fff;}.cls-2{fill:#2e3a8f;}.cls-3{fill:#f9ee04;}</style></defs><line class="cls-1" x1="37.79" y1="73.46" x2="31.46" y2="79.79"/><path class="cls-2" d="M31.46,81.29a1.5,1.5,0,0,1-1.06-2.56l6.33-6.33a1.5,1.5,0,0,1,2.12,2.12l-6.33,6.33A1.49,1.49,0,0,1,31.46,81.29Z"/><path class="cls-3" d="M39.06,62a1.47,1.47,0,0,1-1-.41A1.5,1.5,0,0,1,38,59.43l4.36-4.55a1.65,1.65,0,0,1,.64-.4l3-.93.78-1.67V44.44A1.51,1.51,0,0,1,47.91,43l6.36-1.47,3.59-2.68v-6a1.47,1.47,0,0,1,.53-1.14L69.91,20.56a1.5,1.5,0,1,1,2,2.28l-11,10.72v6a1.49,1.49,0,0,1-.6,1.2l-4.45,3.32a1.4,1.4,0,0,1-.55.26l-5.51,1.28v6.58a1.52,1.52,0,0,1-.14.63l-1.2,2.58a1.47,1.47,0,0,1-.91.8l-3.27,1L40.14,61.5A1.49,1.49,0,0,1,39.06,62Z"/><path class="cls-3" d="M52.59,44.93a1.51,1.51,0,0,1-1.48-1.22l-.91-4.77-3.38-1.37a1.5,1.5,0,0,1-.94-1.39v-4a1.5,1.5,0,0,1,3,0v3l3.21,1.3a1.48,1.48,0,0,1,.9,1.11l1.07,5.57a1.49,1.49,0,0,1-1.19,1.75Z"/><path class="cls-3" d="M77,31.34a1.51,1.51,0,0,1-.68-.16L73,29.47l-1.91.94a1.49,1.49,0,0,1-1.56-.15l-1.29-1H65.29a1.5,1.5,0,0,1,0-3h3.44a1.48,1.48,0,0,1,.9.3l.94.71,1.77-.86a1.5,1.5,0,0,1,1.34,0l4,2A1.5,1.5,0,0,1,77,31.34Z"/><polygon class="cls-1" points="59.78 69.75 51.56 77.97 26.41 52.83 26.67 44.86 34.63 44.6 59.78 69.75"/><path class="cls-2" d="M51.56,79.47A1.45,1.45,0,0,1,50.5,79L25.35,53.89a1.53,1.53,0,0,1-.44-1.11l.26-8a1.51,1.51,0,0,1,1.45-1.45l8-.26a1.56,1.56,0,0,1,1.11.44L60.84,68.69a1.5,1.5,0,0,1,.44,1.06,1.52,1.52,0,0,1-.44,1.06L52.62,79A1.48,1.48,0,0,1,51.56,79.47ZM27.93,52.23,51.56,75.85l6.1-6.1L34,46.12l-5.91.2Z"/><line class="cls-1" x1="33.67" y1="51.86" x2="52.86" y2="71.05"/><path class="cls-2" d="M52.86,72.55a1.49,1.49,0,0,1-1.06-.44L32.6,52.92a1.5,1.5,0,0,1,2.13-2.12L53.92,70a1.51,1.51,0,0,1,0,2.12A1.53,1.53,0,0,1,52.86,72.55Z"/><line class="cls-1" x1="44.19" y1="57.65" x2="42" y2="59.85"/><path class="cls-2" d="M42,61.35a1.5,1.5,0,0,1-1.06-2.56l2.19-2.2a1.5,1.5,0,0,1,2.12,2.13l-2.19,2.19A1.51,1.51,0,0,1,42,61.35Z"/><line class="cls-1" x1="52.42" y1="65.03" x2="50.23" y2="67.23"/><path class="cls-2" d="M50.23,68.73a1.5,1.5,0,0,1-1.06-2.56L51.36,64a1.51,1.51,0,0,1,2.12,0,1.49,1.49,0,0,1,0,2.12l-2.19,2.2A1.53,1.53,0,0,1,50.23,68.73Z"/><line class="cls-1" x1="30.72" y1="66.77" x2="22.99" y2="74.5"/><path class="cls-2" d="M23,76a1.53,1.53,0,0,1-1.06-.44,1.51,1.51,0,0,1,0-2.12l7.73-7.73a1.5,1.5,0,0,1,2.12,2.12l-7.73,7.73A1.49,1.49,0,0,1,23,76Z"/><line class="cls-1" x1="34.26" y1="70.31" x2="29.98" y2="74.58"/><path class="cls-2" d="M30,76.08a1.47,1.47,0,0,1-1.06-.44,1.51,1.51,0,0,1,0-2.12l4.28-4.28a1.5,1.5,0,0,1,2.12,2.13L31,75.64A1.45,1.45,0,0,1,30,76.08Z"/><rect class="cls-1" x="47.34" y="45.63" width="6.94" height="25.21" rx="3.47" transform="translate(-26.3 52.98) rotate(-45)"/><path class="cls-2" d="M57.26,69.66a5,5,0,0,1-3.51-1.45L40.83,55.29a5,5,0,0,1,7-7L60.78,61.18a5,5,0,0,1-3.52,8.48ZM44.35,49.81A2,2,0,0,0,43,53.17L55.87,66.08a2,2,0,0,0,2.79,0,2,2,0,0,0,0-2.78L45.74,50.38A2,2,0,0,0,44.35,49.81Z"/></svg>