<svg id="圖層_1" data-name="圖層 1" xmlns="http://www.w3.org/2000/svg" viewBox="0 0 100 100"><defs><style>.cls-1{fill:#f9ee04;}.cls-2{fill:#2e3a8f;}</style></defs><path class="cls-1" d="M75.58,45.31H71.36a1.94,1.94,0,0,0,0,3.87h4.22a1.94,1.94,0,0,0,0-3.87Z"/><path class="cls-1" d="M50,27.83a1.93,1.93,0,0,0,1.93-1.94V21.67a1.93,1.93,0,1,0-3.86,0v4.22A1.93,1.93,0,0,0,50,27.83Z"/><path class="cls-1" d="M65.1,34.08a1.92,1.92,0,0,0,1.37-.57l3-3a1.94,1.94,0,1,0-2.74-2.74l-3,3a1.94,1.94,0,0,0,1.36,3.3Z"/><path class="cls-1" d="M33.53,33.51a1.93,1.93,0,0,0,2.74-2.73l-3-3a1.93,1.93,0,1,0-2.73,2.74Z"/><path class="cls-1" d="M30.58,47.25a1.94,1.94,0,0,0-1.94-1.94H24.42a1.94,1.94,0,0,0,0,3.87h4.22A1.93,1.93,0,0,0,30.58,47.25Z"/><path class="cls-2" d="M65.47,67.67H34.53A1.58,1.58,0,0,1,33,66.09V58.93a1.57,1.57,0,0,1,1.58-1.58H65.47a1.57,1.57,0,0,1,1.58,1.58v7.16A1.58,1.58,0,0,1,65.47,67.67ZM36.11,64.51H63.9v-4H36.11Z"/><path class="cls-2" d="M61.1,60.51H38.9a1.57,1.57,0,0,1-1.57-1.58V45.32a12.67,12.67,0,1,1,25.34,0V58.93A1.57,1.57,0,0,1,61.1,60.51ZM40.48,57.35h19v-12a9.52,9.52,0,0,0-19,0Z"/><path class="cls-2" d="M43.24,80.26a1.58,1.58,0,0,1-1.58-1.58V66.09a1.58,1.58,0,1,1,3.16,0V78.68A1.58,1.58,0,0,1,43.24,80.26Z"/><path class="cls-2" d="M56.76,80.26a1.58,1.58,0,0,1-1.58-1.58V66.09a1.58,1.58,0,0,1,3.16,0V78.68A1.58,1.58,0,0,1,56.76,80.26Z"/><path class="cls-2" d="M49.34,53.71a1.54,1.54,0,0,1-1.11-.46l-3.11-3.1a1.58,1.58,0,0,1,2.23-2.24L50.46,51a1.58,1.58,0,0,1-1.12,2.69Z"/><path class="cls-2" d="M49.66,53.71A1.58,1.58,0,0,1,48.55,51l3.1-3.11a1.58,1.58,0,0,1,2.24,2.24l-3.11,3.1A1.57,1.57,0,0,1,49.66,53.71Z"/><path class="cls-2" d="M49.43,58.89a1.57,1.57,0,0,1-1.58-1.55l-.09-5.18a1.58,1.58,0,0,1,1.56-1.6,1.59,1.59,0,0,1,1.6,1.55L51,57.28a1.59,1.59,0,0,1-1.56,1.61Z"/></svg>