<svg id="圖層_1" data-name="圖層 1" xmlns="http://www.w3.org/2000/svg" viewBox="0 0 100 100"><defs><style>.cls-1{fill:#f5a923;stroke:#f5a923;stroke-miterlimit:10;stroke-width:0.75px;}.cls-2{fill:none;stroke:#2e3a8f;stroke-linecap:round;stroke-linejoin:round;stroke-width:3px;}</style></defs><path class="cls-1" d="M64.38,45.71l-2.72-1.82h0a5.12,5.12,0,0,0-9.53-1.53,11.1,11.1,0,0,0-10.22-7.07.76.76,0,0,0-.52.21.74.74,0,0,0-.22.52,14.89,14.89,0,0,0,.53,4.36,9,9,0,0,0-6.2,2.48h0a.75.75,0,0,0-.2.64.74.74,0,0,0,.4.54c2.54,1.27,8,5.27,8.39,9.19-2.92,1.47-5.63,2.86-7.11,4.34a.73.73,0,0,0,.06,1.1l7.35,5.88h0a.76.76,0,0,0,.46.16H45a.75.75,0,0,0,.5-.35,33.6,33.6,0,0,1,3.77-5.52c6.83,0,10.88-3.8,11.74-11L64.15,47a.74.74,0,0,0,.55-.59.72.72,0,0,0-.32-.74ZM50.69,42.79a17.54,17.54,0,0,0-7.46-2.37,12.09,12.09,0,0,1-.58-3.63,9.7,9.7,0,0,1,8,6Zm9.46,3.73a.73.73,0,0,0-.56.64c-.65,6.77-4.12,10.2-10.33,10.2-.36,0-1.32,0-4.61,5.51l-6-4.81a41.18,41.18,0,0,1,6.54-3.72.74.74,0,0,0,.41-.66c0-4.6-5.39-8.72-8.28-10.43,4.18-3,11.71-.55,14.38,2.12a.72.72,0,0,0,.8.16.73.73,0,0,0,.45-.68,3.67,3.67,0,0,1,7.31-.44.74.74,0,0,0,.32.53L62.18,46Z"/><line class="cls-2" x1="25.74" y1="25.88" x2="25.74" y2="74.12"/><line class="cls-2" x1="35.44" y1="25.88" x2="35.44" y2="74.12"/><line class="cls-2" x1="45.15" y1="25.88" x2="45.15" y2="74.12"/><line class="cls-2" x1="54.85" y1="25.88" x2="54.85" y2="74.12"/><line class="cls-2" x1="64.56" y1="25.88" x2="64.56" y2="74.12"/><line class="cls-2" x1="74.26" y1="25.88" x2="74.26" y2="74.12"/><line class="cls-2" x1="25.74" y1="25.88" x2="74.26" y2="25.88"/><line class="cls-2" x1="25.74" y1="74.12" x2="74.26" y2="74.12"/></svg>