<svg id="圖層_1" data-name="圖層 1" xmlns="http://www.w3.org/2000/svg" viewBox="0 0 100 100"><defs><style>.cls-1{fill:#f8b62d;stroke:#f8b62d;stroke-miterlimit:10;stroke-width:0.75px;}.cls-2{fill:none;stroke:#3c4fa0;stroke-linecap:round;stroke-linejoin:round;stroke-width:3px;}</style></defs><path class="cls-1" d="M63.92,54.05l-2.64-1.76h0a5,5,0,0,0-9.22-1.48A10.73,10.73,0,0,0,42.17,44a.75.75,0,0,0-.51.21.74.74,0,0,0-.2.51,14.24,14.24,0,0,0,.5,4.21,8.74,8.74,0,0,0-6,2.4h0a.71.71,0,0,0,.18,1.14c2.46,1.23,7.75,5.11,8.13,8.91-2.82,1.41-5.45,2.76-6.89,4.19a.7.7,0,0,0-.2.55.67.67,0,0,0,.26.51l7.12,5.7h0a.72.72,0,0,0,.45.15h.13a.7.7,0,0,0,.48-.34,32.19,32.19,0,0,1,3.66-5.34c6.61,0,10.52-3.68,11.36-10.65l3.05-.76a.73.73,0,0,0,.53-.57.71.71,0,0,0-.31-.72ZM50.67,51.23a16.93,16.93,0,0,0-7.22-2.3,11.67,11.67,0,0,1-.57-3.51,9.38,9.38,0,0,1,7.79,5.81Zm9.15,3.61a.69.69,0,0,0-.53.62c-.64,6.54-4,9.86-10,9.86-.36,0-1.28,0-4.47,5.34L39,66a41.6,41.6,0,0,1,6.33-3.61.71.71,0,0,0,.4-.64c0-4.44-5.22-8.44-8-10.09,4-2.89,11.33-.53,13.91,2a.71.71,0,0,0,.78.16.72.72,0,0,0,.44-.66,3.55,3.55,0,0,1,7.07-.42.72.72,0,0,0,.31.5l1.56,1Z"/><line class="cls-2" x1="26.52" y1="34.86" x2="26.52" y2="81.55"/><line class="cls-2" x1="35.91" y1="34.86" x2="35.91" y2="81.55"/><line class="cls-2" x1="45.3" y1="34.86" x2="45.3" y2="81.55"/><line class="cls-2" x1="54.7" y1="34.86" x2="54.7" y2="81.55"/><line class="cls-2" x1="64.09" y1="34.86" x2="64.09" y2="81.55"/><line class="cls-2" x1="73.48" y1="34.86" x2="73.48" y2="81.55"/><line class="cls-2" x1="26.52" y1="34.86" x2="73.48" y2="34.86"/><line class="cls-2" x1="26.52" y1="81.55" x2="73.48" y2="81.55"/></svg>