<svg id="圖層_1" data-name="圖層 1" xmlns="http://www.w3.org/2000/svg" viewBox="0 0 100 100"><defs><style>.cls-1{fill:#f9ee04;stroke:#f9ee04;stroke-miterlimit:10;stroke-width:0.75px;}.cls-2{fill:none;stroke:#2e3a8f;stroke-linecap:round;stroke-linejoin:round;stroke-width:3px;}</style></defs><path class="cls-1" d="M65.26,50.13,62.37,48.2h0a5.43,5.43,0,0,0-10.11-1.62,11.77,11.77,0,0,0-10.84-7.51.79.79,0,0,0-.78.78,15.75,15.75,0,0,0,.55,4.63,9.58,9.58,0,0,0-6.57,2.62h0a.8.8,0,0,0-.21.68.75.75,0,0,0,.42.57c2.69,1.35,8.49,5.6,8.9,9.76-3.09,1.55-6,3-7.54,4.6a.78.78,0,0,0-.23.59.8.8,0,0,0,.29.57l7.8,6.24h0a.79.79,0,0,0,.49.17h.14a.77.77,0,0,0,.53-.38,35.25,35.25,0,0,1,4-5.85c7.24,0,11.54-4,12.45-11.67L65,51.53a.78.78,0,0,0,.25-1.4ZM50.73,47a18.72,18.72,0,0,0-7.91-2.52,12.87,12.87,0,0,1-.62-3.85A10.32,10.32,0,0,1,50.73,47Zm10,4a.77.77,0,0,0-.58.68c-.7,7.17-4.38,10.81-11,10.81-.39,0-1.4,0-4.9,5.85L38,63.23a43.54,43.54,0,0,1,6.94-3.95.81.81,0,0,0,.43-.7c0-4.87-5.72-9.25-8.78-11.06C41,44.35,49,46.94,51.79,49.77a.78.78,0,0,0,1.33-.55,3.89,3.89,0,0,1,7.75-.47.79.79,0,0,0,.34.56l1.71,1.14Z"/><line class="cls-2" x1="24.27" y1="29.09" x2="24.27" y2="80.26"/><line class="cls-2" x1="34.56" y1="29.09" x2="34.56" y2="80.26"/><line class="cls-2" x1="44.85" y1="29.09" x2="44.85" y2="80.26"/><line class="cls-2" x1="55.15" y1="29.09" x2="55.15" y2="80.26"/><line class="cls-2" x1="65.44" y1="29.09" x2="65.44" y2="80.26"/><line class="cls-2" x1="75.73" y1="29.09" x2="75.73" y2="80.26"/><line class="cls-2" x1="24.27" y1="29.09" x2="75.73" y2="29.09"/><line class="cls-2" x1="24.27" y1="80.26" x2="75.73" y2="80.26"/></svg>