<svg id="圖層_1" data-name="圖層 1" xmlns="http://www.w3.org/2000/svg" viewBox="0 0 100 100"><defs><style>.cls-1,.cls-2,.cls-3{fill:none;}.cls-1{stroke:#f5a923;}.cls-1,.cls-2,.cls-3,.cls-4{stroke-linecap:round;stroke-linejoin:round;}.cls-1,.cls-2{stroke-width:3px;}.cls-2,.cls-3,.cls-4{stroke:#2e3a8f;}.cls-3,.cls-4{stroke-width:2.5px;}.cls-4{fill:#fff;}</style></defs><rect class="cls-1" x="43.98" y="40.06" width="13.44" height="4.43"/><line class="cls-1" x1="46.06" y1="44.49" x2="46.06" y2="47.65"/><line class="cls-1" x1="55.46" y1="44.49" x2="55.46" y2="47.65"/><rect class="cls-2" x="39.51" y="48.78" width="22.39" height="32.77"/><rect class="cls-2" x="43.72" y="52.99" width="4.97" height="4.97"/><rect class="cls-2" x="52.72" y="52.99" width="4.97" height="4.97"/><rect class="cls-2" x="43.72" y="61.98" width="4.97" height="4.97"/><rect class="cls-2" x="52.72" y="61.98" width="4.97" height="4.97"/><rect class="cls-2" x="61.9" y="61.29" width="12.23" height="20.27"/><path class="cls-3" d="M38.87,32.89l11.8-12.52L49.35,19,35.86,29.6a2.24,2.24,0,0,0-.44,3.06h0A2.24,2.24,0,0,0,38.87,32.89Z"/><polyline class="cls-3" points="50.67 31.58 50.67 32.86 50.67 36.2"/><polyline class="cls-3" points="50.67 31.58 48.43 32.19 47.3 33.79 48.01 36.2"/><polyline class="cls-3" points="53.34 36.2 54.05 33.79 52.92 32.19 50.67 31.58"/><circle class="cls-4" cx="50.67" cy="20.43" r="1.98"/><line class="cls-3" x1="50.67" y1="23.53" x2="50.67" y2="34.38"/><line class="cls-3" x1="35.35" y1="30.16" x2="25.87" y2="48.39"/><line class="cls-3" x1="38.09" y1="33.43" x2="33.16" y2="52.35"/></svg>