<svg id="圖層_1" data-name="圖層 1" xmlns="http://www.w3.org/2000/svg" viewBox="0 0 853.15 198.43"><defs><style>.cls-1{fill:#02071f;}.cls-2{fill:#3c4fa0;}.cls-3{fill:#231815;}</style></defs><path class="cls-1" d="M169.09,80.91a117.33,117.33,0,0,1-2.27,20.79l-6.07-1.61a100.17,100.17,0,0,0,2.56-19.69ZM178,65v68.52h-6.66V65Zm9.52,29.65L181.9,96a142.74,142.74,0,0,0-3.73-16.76l5.12-1.54A159,159,0,0,1,187.47,94.6Zm41.21,29.87V131H184.25v-6.52Zm-.87-56.3v6.52H186.52V68.17Zm-3.37,13.11v36.53H189.81V81.28Zm-6.52,15.08V87.57H196.25v8.79Zm0,6.15H196.25v9h21.67Z"/><path class="cls-1" d="M276,65.46V76.08h6.08V65.46h6.73V76.08h5.13A67.28,67.28,0,0,0,299,66.49l6.44,2.41a66.4,66.4,0,0,1-4.61,7.18h10.47v6.08H290.92l5.63,2a43.51,43.51,0,0,1-3.22,4.69H308v6.07H282.72v4h21.81v5.78H282.72v4h28.55v6.15H282.72v18.37h-7V114.88H247.14v-6.15h28.55v-4H253.87V98.92h21.82v-4H250.43V88.82h14.64a37.78,37.78,0,0,0-3.22-4.91l4.76-1.75H247.06V76.08h10.4a40.32,40.32,0,0,0-4.25-7.1l6.52-2.42a58.21,58.21,0,0,1,4.46,9.52h5.06V65.46Zm-7.17,54.84a64,64,0,0,1-16.62,11.86l-4.32-5.57a63.85,63.85,0,0,0,16.32-10.39Zm0-38.14a51.56,51.56,0,0,1,3.51,6.66h13.32a58.16,58.16,0,0,0,4-6.66Zm41.51,45-5,5a89.56,89.56,0,0,0-15.3-11.5l4.46-4.32A111,111,0,0,1,310.32,127.18Z"/><path class="cls-1" d="M335.43,77.25V70.59h56.15v6.66H367v44.51h29.21v6.74H330.67v-6.74H360V77.25Z"/><path class="cls-1" d="M425.19,85V76.08c-2.93.36-5.86.73-8.79,1l-1.32-6.51a112.38,112.38,0,0,0,24.24-4.47l2.41,6.59c-3.15.88-6.44,1.61-10,2.27V85h8.56v6.52h-8.56v3.22c3.29,3.07,6.58,6.44,10,10.1l-3.88,5.86c-2.34-3.81-4.32-7-6.07-9.45v31.48h-6.59v-30.6a80,80,0,0,1-8.79,17.06l-3.07-7.76a54,54,0,0,0,11.05-19.91h-9.3V85ZM457,109.54v-7.33c-4.54.37-9.15.74-14,1l-1.24-6.15a296.19,296.19,0,0,0,34.77-3.37l2.12,5.86q-7,1.1-14.93,2v8h14.71v6.22H463.77v8.49H481v6.22H440v-6.22H457v-8.49H442.61v-6.22ZM476.8,67.88V90.06H444.66V67.88ZM470.06,74H451.4v9.81h18.66Z"/><path class="cls-1" d="M513.41,133.11l-5-4.54c4.39-4.54,6.66-10.4,6.8-17.5V96.36a97,97,0,0,1-12.66,12.37L498,102.87a79.16,79.16,0,0,0,20.13-23.2H500V73h21.45c1.1-2.63,2-5.27,2.93-8l7.1.81c-.73,2.49-1.54,4.9-2.42,7.17h35.36v6.67H526.14a74.06,74.06,0,0,1-4,7.1h33.45v39.31c0,4.32-2.48,6.52-7.32,6.52h-7.46l-1.61-6.23c2.49.15,4.9.3,7.1.3,1.75,0,2.71-1,2.71-2.93v-6.15H521A30,30,0,0,1,513.41,133.11Zm8.27-22.48c0,.3-.07.66-.07,1H549v-6.29H521.68ZM549,92.77H521.68v6.52H549Z"/><path class="cls-1" d="M608.58,68v5.49c-2.2,6.3-4.76,12.89-7.69,19.84,4.62,6.74,7.11,12.59,7.4,17.65,0,3.36-.73,5.85-2.2,7.32-2.19,1.9-5.93,2.85-11.34,2.85l-2.27-7a26.36,26.36,0,0,0,3.73.37,10.07,10.07,0,0,0,4.1-.88,3.14,3.14,0,0,0,1-2.63c0-5-2.49-10.47-7.46-16.62a200.08,200.08,0,0,0,7.76-19.84h-10v58.64h-6.81V68Zm9.3,55.42A85.88,85.88,0,0,0,629.52,119l1.68,6.44a159.3,159.3,0,0,1-20.28,6.52l-1.68-6.08c1.17-.44,1.83-1.1,1.83-2V67.88h33V100.6H617.88Zm19.4-48.9h-19.4v6.81h19.4Zm-19.4,19.76h19.4V87.5h-19.4Zm30.6,13.11a35.6,35.6,0,0,1-10.4,8.56,39.38,39.38,0,0,0,12.16,10.47l-4,5.93q-13.83-8.24-20.06-25.69l5.2-2.93a51.41,51.41,0,0,0,3.44,7.32,35.81,35.81,0,0,0,9.22-8.13Z"/><path class="cls-1" d="M693.21,70.44q-7.79,22-20.49,33.68l-5.49-4.76c8.78-7.91,15.22-18.45,19.47-31.55Zm34.34,59.67L721,133c-1-2.49-2-4.76-3-6.89q-19.11,2.86-42.53,4.4l-1.25-6.74q7.8-2.52,21.75-33.6l6.88,2.34A190.33,190.33,0,0,1,685,123.44c10.4-.65,20.43-1.75,30.17-3.22-2.49-4.83-5-9.29-7.54-13.25l6.29-2A154.81,154.81,0,0,1,727.55,130.11ZM716.2,67.59c2.49,12.88,8.42,23.28,17.64,31.33l-5.49,4.9A59,59,0,0,1,710.93,74.1H699.22V67.59Z"/><path class="cls-1" d="M798.34,82.37v6.37H752.08V82.37Zm-4.75,50.15-1.76-6.66,10.4.15q2.63,0,2.63-4V74.69H755.81V68h56v56q0,8.56-8.13,8.56Zm-2.05-36.24v23.87H758V96.28Zm-6.67,6.23h-20.2V114h20.2Z"/><path class="cls-2" d="M71.54,143c-1.33,5-8.65,5-10,0-.83-4.22,2.53-6,5-11.62C69.3,137.06,72.27,138.78,71.54,143Z"/><path class="cls-3" d="M132.19,136.72,98.84,103.44l1.49-5,16.43-21.55-9.28-9.27-50.2,50.16,6.59,6.62h0l2.67,2.68L88,110.81l5-1.5,33.35,33.3a4.14,4.14,0,0,0,5.86,0h0A4.2,4.2,0,0,0,132.19,136.72ZM107.26,74.13l2.56,2.57L66.4,120.35l-2.56-2.57Z"/><rect class="cls-2" x="47.45" y="97.36" width="4.74" height="19.26" transform="translate(-61.06 66.57) rotate(-45)"/><rect class="cls-2" x="94.29" y="50.52" width="4.74" height="19.26" transform="translate(-14.22 85.97) rotate(-45)"/><rect class="cls-2" x="51.89" y="92.02" width="4.74" height="14.94" transform="translate(-54.46 67.51) rotate(-45)"/><rect class="cls-2" x="56.23" y="86.78" width="4.75" height="10.61" transform="translate(-47.95 68.41) rotate(-45)"/></svg>